<svg width="12" height="16" viewBox="0 0 12 16" fill="none" xmlns="http://www.w3.org/2000/svg">
<path d="M8.5 2H9.5C9.89782 2 10.2794 2.15804 10.5607 2.43934C10.842 2.72064 11 3.10218 11 3.5V13.5C11 13.8978 10.842 14.2794 10.5607 14.5607C10.2794 14.842 9.89782 15 9.5 15H2.5C2.10218 15 1.72064 14.842 1.43934 14.5607C1.15804 14.2794 1 13.8978 1 13.5V3.5C1 3.10218 1.15804 2.72064 1.43934 2.43934C1.72064 2.15804 2.10218 2 2.5 2H3.5" stroke="white" stroke-linejoin="round"/>
<path d="M7.34675 1H4.65325C4.29247 1 4 1.36559 4 1.81656V2.18344C4 2.63441 4.29247 3 4.65325 3H7.34675C7.70753 3 8 2.63441 8 2.18344V1.81656C8 1.36559 7.70753 1 7.34675 1Z" stroke="white" stroke-linejoin="round"/>
<path d="M8 8L5.2 10L4 9.25" stroke="white" stroke-linecap="round" stroke-linejoin="round"/>
</svg>
