<svg width="14" height="17" viewBox="0 0 14 17" fill="none" xmlns="http://www.w3.org/2000/svg">
<path d="M12.9082 12.0413C11.9552 10.875 11.2824 10.2812 11.2824 7.06572C11.2824 4.12109 9.77874 3.07201 8.54114 2.5625C8.37674 2.49496 8.222 2.33984 8.1719 2.171C7.95481 1.43215 7.34622 0.78125 6.53723 0.78125C5.72825 0.78125 5.11928 1.43252 4.90442 2.17174C4.85432 2.34244 4.69958 2.49496 4.53518 2.5625C3.2961 3.07275 1.79391 4.11813 1.79391 7.06572C1.79206 10.2812 1.11926 10.875 0.166294 12.0413C-0.22855 12.5245 0.11731 13.25 0.807915 13.25H6.53909H12.2703C12.9572 13.25 13.3008 12.5223 12.9082 12.0413ZM8.91223 13.25V13.8438C8.91223 14.4736 8.66201 15.0777 8.21661 15.5231C7.77121 15.9685 7.16712 16.2188 6.53723 16.2188C5.90734 16.2188 5.30325 15.9685 4.85785 15.5231C4.41245 15.0777 4.16223 14.4736 4.16223 13.8438V13.25" fill="white"/>
</svg>
