<svg width="16" height="16" viewBox="0 0 16 16" fill="none" xmlns="http://www.w3.org/2000/svg">
<path d="M1.5185 12.7692C1.56466 12.6008 1.4635 12.3665 1.36696 12.1977C1.33704 12.1473 1.30443 12.0985 1.26927 12.0515C0.441296 10.7959 -1.26641e-05 9.32484 4.00289e-05 7.82077C-0.0138061 3.50346 3.56619 0 7.99312 0C11.8539 0 15.077 2.67462 15.8297 6.225C15.9426 6.75137 15.9997 7.28819 16 7.82654C16 12.15 12.5581 15.7085 8.13119 15.7085C7.42696 15.7085 6.47735 15.5315 5.95927 15.3865C5.44119 15.2415 4.92389 15.0492 4.79042 14.9977C4.6538 14.9452 4.50871 14.9182 4.36235 14.9181C4.20275 14.9175 4.0447 14.9493 3.89773 15.0115L1.2885 15.9531C1.23148 15.9777 1.17105 15.9935 1.10927 16C1.06041 15.9999 1.01206 15.99 0.967016 15.9711C0.921977 15.9521 0.881144 15.9244 0.846878 15.8896C0.812612 15.8547 0.785595 15.8134 0.767388 15.7681C0.749182 15.7228 0.740148 15.6742 0.740809 15.6254C0.744018 15.5825 0.751753 15.5401 0.763886 15.4988L1.5185 12.7692Z" fill="white"/>
<path d="M4.30772 9.23076C4.98745 9.23076 5.53849 8.67973 5.53849 8C5.53849 7.32026 4.98745 6.76923 4.30772 6.76923C3.62798 6.76923 3.07695 7.32026 3.07695 8C3.07695 8.67973 3.62798 9.23076 4.30772 9.23076Z" fill="#1A1527"/>
<path d="M8.00004 9.23076C8.67978 9.23076 9.23081 8.67973 9.23081 8C9.23081 7.32026 8.67978 6.76923 8.00004 6.76923C7.32031 6.76923 6.76927 7.32026 6.76927 8C6.76927 8.67973 7.32031 9.23076 8.00004 9.23076Z" fill="#1A1527"/>
<path d="M11.6923 9.23076C12.3721 9.23076 12.9231 8.67973 12.9231 8C12.9231 7.32026 12.3721 6.76923 11.6923 6.76923C11.0126 6.76923 10.4616 7.32026 10.4616 8C10.4616 8.67973 11.0126 9.23076 11.6923 9.23076Z" fill="#1A1527"/>
</svg>
