<svg width="16" height="14" viewBox="0 0 16 14" fill="none" xmlns="http://www.w3.org/2000/svg">
<path d="M7.37349 0.128588C6.95904 0.302082 6.49639 0.870756 6.41928 1.28521C6.32289 1.78642 6.51566 2.35509 6.89157 2.72136C7.22892 3.04907 7.22892 3.04907 7.22892 3.93582V4.81293H5.43614C3.37349 4.81293 3.06506 4.8804 2.44819 5.42015C1.83133 5.95991 1.60964 6.44184 1.58072 7.31895C1.55181 7.98401 1.53253 8.04184 1.3494 8.01292C0.713253 7.91654 0 8.52377 0 9.15991C0 9.92136 0.472289 10.4033 1.2241 10.4033H1.59036L1.6 11.1069C1.6 11.4924 1.66747 11.9551 1.75422 12.1479C1.9759 12.6587 2.45783 13.1599 2.96867 13.4105L3.42169 13.6322H8H12.5783L13.0313 13.4105C13.5422 13.1599 14.0241 12.6587 14.2458 12.1479C14.3325 11.9551 14.4 11.4924 14.4 11.1069L14.4096 10.4033H14.7759C15.5277 10.4033 16 9.92136 16 9.15991C16 8.51413 15.2964 7.91654 14.6313 8.01292C14.4289 8.04184 14.4193 8.01292 14.4482 7.58883C14.506 6.50931 13.9181 5.48762 12.9639 5.04425C12.5108 4.8322 12.3663 4.81293 10.6313 4.81293H8.77108V3.93582C8.77108 3.04907 8.77108 3.04907 9.10843 2.72136C9.30121 2.53823 9.48434 2.22979 9.54217 1.99847C9.87952 0.755094 8.55904 -0.391894 7.37349 0.128588ZM12.8867 5.89244C13.5614 6.33582 13.5904 6.49003 13.5904 9.27558C13.5904 11.6659 13.5807 11.7334 13.3687 12.0515C13.253 12.225 13.0024 12.4756 12.8289 12.5912L12.5012 12.8129H8H3.4988L3.17108 12.5912C2.99759 12.4756 2.74699 12.225 2.63133 12.0515C2.41928 11.7334 2.40964 11.6659 2.40964 9.27558C2.40964 6.67317 2.44819 6.42256 2.89157 6.01774C3.34458 5.60329 3.59518 5.58401 8.15422 5.61292L12.4916 5.6322L12.8867 5.89244Z" fill="#FF6347"/>
<path d="M4.81929 8.09967C3.91327 8.46594 3.72049 9.54545 4.44339 10.1623C4.97351 10.5961 5.90845 10.4226 6.21688 9.82497C6.55423 9.15991 6.29399 8.4081 5.62893 8.12859C5.26266 7.97437 5.147 7.97437 4.81929 8.09967Z" fill="#FF6347"/>
<path d="M10.3518 8.12859C9.91807 8.32136 9.63855 8.72618 9.63855 9.16955C9.63855 9.931 10.1108 10.4033 10.8819 10.4033C11.3639 10.4033 11.8072 10.0467 11.9614 9.53582C12.2313 8.64907 11.2 7.75269 10.3518 8.12859Z" fill="#FF6347"/>
<path d="M9 12C9 11.6667 8.8 11 8 11C7.2 11 7 11.6667 7 12" stroke="#FF6347" stroke-width="0.5" stroke-linecap="round"/>
</svg>
