<svg width="16" height="14" viewBox="0 0 16 14" fill="none" xmlns="http://www.w3.org/2000/svg">
<path d="M13.4 2.90769V2.43077C13.3989 2.05164 13.2478 1.68836 12.9797 1.42028C12.7116 1.1522 12.3484 1.0011 11.9692 1H2.43077C2.05164 1.0011 1.68836 1.1522 1.42028 1.42028C1.1522 1.68836 1.0011 2.05164 1 2.43077V10.0615C1.0011 10.4407 1.1522 10.8039 1.42028 11.072C1.68836 11.3401 2.05164 11.4912 2.43077 11.4923H2.90769" stroke="white" stroke-linejoin="round"/>
<path d="M13.9368 3.38477H4.75547C3.99837 3.38477 3.38461 3.99852 3.38461 4.75562V12.0293C3.38461 12.7864 3.99837 13.4001 4.75547 13.4001H13.9368C14.6939 13.4001 15.3077 12.7864 15.3077 12.0293V4.75562C15.3077 3.99852 14.6939 3.38477 13.9368 3.38477Z" stroke="white" stroke-linejoin="round"/>
<path d="M11.639 7.02682C12.1455 7.02682 12.5561 6.61912 12.5561 6.11619C12.5561 5.61327 12.1455 5.20557 11.639 5.20557C11.1324 5.20557 10.7218 5.61327 10.7218 6.11619C10.7218 6.61912 11.1324 7.02682 11.639 7.02682Z" stroke="white" stroke-miterlimit="10"/>
<path d="M10.7218 10.6627L8.12404 8.08765C7.95797 7.92357 7.73585 7.82861 7.5025 7.82191C7.26915 7.81522 7.04194 7.8973 6.86675 8.05158L3.38461 11.1239M8.42897 13.4L11.9639 9.89071C12.1265 9.73029 12.3428 9.63582 12.5711 9.62553C12.7993 9.61523 13.0232 9.68985 13.1997 9.83497L15.3077 11.579" stroke="white" stroke-linecap="round" stroke-linejoin="round"/>
</svg>
