<svg width="14" height="14" viewBox="0 0 14 14" fill="none" xmlns="http://www.w3.org/2000/svg">
<circle cx="7" cy="7" r="6.5" stroke="white"/>
<path d="M6.28 8.79C6.28 8.53 6.32333 8.30333 6.41 8.11C6.49667 7.91667 6.60333 7.74333 6.73 7.59C6.86333 7.43667 7.00667 7.29667 7.16 7.17C7.31333 7.03667 7.45667 6.90667 7.59 6.78C7.72333 6.64667 7.83 6.50667 7.91 6.36C7.99667 6.21333 8.04 6.04333 8.04 5.85C8.04 5.53 7.91333 5.27 7.66 5.07C7.40667 4.87 7.05667 4.77 6.61 4.77C6.21 4.77 5.86333 4.83667 5.57 4.97C5.27667 5.10333 5.02667 5.3 4.82 5.56L4.09 5.04C4.37 4.68667 4.72667 4.41333 5.16 4.22C5.59333 4.02 6.1 3.92 6.68 3.92C7.16 3.92 7.57667 3.99333 7.93 4.14C8.28333 4.28 8.55667 4.48333 8.75 4.75C8.95 5.01 9.05 5.32667 9.05 5.7C9.05 5.98 9.00667 6.22 8.92 6.42C8.83333 6.62 8.72333 6.79667 8.59 6.95C8.45667 7.10333 8.31333 7.24667 8.16 7.38C8.01333 7.51333 7.87333 7.64667 7.74 7.78C7.60667 7.91333 7.49667 8.06 7.41 8.22C7.32333 8.38 7.28 8.57 7.28 8.79H6.28ZM6.79 11.06C6.60333 11.06 6.44667 10.9967 6.32 10.87C6.2 10.7433 6.14 10.5933 6.14 10.42C6.14 10.2333 6.2 10.08 6.32 9.96C6.44667 9.84 6.60333 9.78 6.79 9.78C6.97667 9.78 7.13 9.84 7.25 9.96C7.37 10.08 7.43 10.2333 7.43 10.42C7.43 10.5933 7.37 10.7433 7.25 10.87C7.13 10.9967 6.97667 11.06 6.79 11.06Z" fill="white"/>
</svg>
