<svg width="20" height="25" viewBox="0 0 20 25" fill="none" xmlns="http://www.w3.org/2000/svg">
<path d="M13.875 9.68164V4.96875C13.875 3.91617 13.4272 2.9067 12.6302 2.16242C11.8332 1.41813 10.7522 1 9.625 1C8.49783 1 7.41683 1.41813 6.6198 2.16242C5.82277 2.9067 5.375 3.91617 5.375 4.96875V9.68164" stroke="#333333" stroke-width="2" stroke-linecap="round" stroke-linejoin="round"/>
<path d="M15.575 9.68164H3.675C2.26667 9.68164 1.125 10.7478 1.125 12.0629V20.7941C1.125 22.1093 2.26667 23.1754 3.675 23.1754H15.575C16.9833 23.1754 18.125 22.1093 18.125 20.7941V12.0629C18.125 10.7478 16.9833 9.68164 15.575 9.68164Z" stroke="#333333" stroke-width="2" stroke-linecap="round" stroke-linejoin="round"/>
</svg>
