<svg width="32" height="25" viewBox="0 0 32 25" fill="none" xmlns="http://www.w3.org/2000/svg">
<path d="M25.875 9.68164V4.96875C25.875 3.91617 25.4272 2.9067 24.6302 2.16242C23.8332 1.41813 22.7522 1 21.625 1C20.4978 1 19.4168 1.41813 18.6198 2.16242C17.8228 2.9067 17.375 3.91617 17.375 4.96875V9.68164" stroke="#5918DF" stroke-width="2" stroke-linecap="round" stroke-linejoin="round"/>
<path d="M27.575 9.68164H15.675C14.2667 9.68164 13.125 10.7478 13.125 12.0629V20.7941C13.125 22.1093 14.2667 23.1754 15.675 23.1754H27.575C28.9833 23.1754 30.125 22.1093 30.125 20.7941V12.0629C30.125 10.7478 28.9833 9.68164 27.575 9.68164Z" stroke="#5918DF" stroke-width="2" stroke-linecap="round" stroke-linejoin="round"/>
<path d="M10 3L3 3" stroke="#5918DF" stroke-width="2" stroke-linecap="round"/>
<path d="M10 6.5L1 6.5" stroke="#5918DF" stroke-width="2" stroke-linecap="round"/>
</svg>
