<svg width="12" height="12" viewBox="0 0 12 12" fill="none" xmlns="http://www.w3.org/2000/svg">
<path d="M1.58654 12H0V10.4135L8.94634 1.44491L10.5551 3.05394L1.58654 12ZM10.8958 2.71154L9.28846 1.10423L10.2017 0.21981C10.3428 0.0778871 10.5591 2.55092e-06 10.7596 2.55092e-06C10.8583 -0.000255291 10.9561 0.0190359 11.0473 0.0567627C11.1385 0.0944895 11.2213 0.149905 11.291 0.21981L11.7813 0.710195C11.851 0.779783 11.9061 0.862454 11.9436 0.953447C11.9812 1.04444 12.0003 1.14196 12 1.24039C12 1.44231 11.9218 1.65721 11.7802 1.79885L10.8958 2.71154Z" fill="white"/>
</svg>
