<svg width="14" height="14" viewBox="0 0 14 14" fill="none" xmlns="http://www.w3.org/2000/svg">
<path d="M13 9.46315V4.53655C12.9998 4.3753 12.9538 4.21692 12.8667 4.07716C12.7796 3.9374 12.6543 3.82115 12.5034 3.73997L7.75344 1.18781C7.52458 1.0648 7.2645 1 6.99969 1C6.73487 1 6.47479 1.0648 6.24594 1.18781L1.49656 3.73997C1.34565 3.82115 1.22041 3.9374 1.13329 4.07716C1.04617 4.21692 1.00021 4.3753 1 4.53655V9.46315C1.0001 9.62449 1.04601 9.783 1.13313 9.92286C1.22026 10.0627 1.34556 10.1791 1.49656 10.2603L6.24656 12.8125C6.47548 12.9353 6.73554 13 7.00031 13C7.26509 13 7.52514 12.9353 7.75406 12.8125L12.5041 10.2603C12.6549 10.179 12.7801 10.0626 12.8671 9.92276C12.9542 9.7829 13 9.62444 13 9.46315Z" stroke="white" stroke-linecap="round" stroke-linejoin="round"/>
<path d="M1 4L7 7.19355M7 7.19355L13 4M7 7.19355V13" stroke="white" stroke-linecap="round" stroke-linejoin="round"/>
</svg>
