<svg width="16" height="16" viewBox="0 0 16 16" fill="none" xmlns="http://www.w3.org/2000/svg">
<path d="M14.0339 1H9.89684C9.76821 0.999907 9.64476 1.05074 9.55349 1.14138L1.28276 9.41211C1.10166 9.5941 1 9.84039 1 10.0971C1 10.3539 1.10166 10.6002 1.28276 10.7822L5.2212 14.7206C5.40319 14.9017 5.64949 15.0034 5.90622 15.0034C6.16296 15.0034 6.40926 14.9017 6.59124 14.7206L14.8586 6.45323C14.9493 6.36196 15.0001 6.23851 15 6.10988V1.96946C15.0006 1.84226 14.9761 1.71619 14.9278 1.59851C14.8795 1.48083 14.8084 1.37386 14.7186 1.28376C14.6288 1.19365 14.5221 1.1222 14.4046 1.0735C14.2871 1.0248 14.1611 0.999822 14.0339 1Z" stroke="white" stroke-linecap="round" stroke-linejoin="round"/>
<path d="M12.3087 4.77013C12.0957 4.77013 11.8874 4.70696 11.7103 4.5886C11.5332 4.47023 11.3951 4.302 11.3136 4.10517C11.232 3.90834 11.2107 3.69176 11.2523 3.48281C11.2938 3.27385 11.3964 3.08192 11.5471 2.93127C11.6977 2.78063 11.8896 2.67803 12.0986 2.63647C12.3076 2.59491 12.5241 2.61624 12.721 2.69777C12.9178 2.7793 13.086 2.91736 13.2044 3.0945C13.3228 3.27165 13.3859 3.47991 13.3859 3.69295C13.3859 3.97864 13.2724 4.25263 13.0704 4.45464C12.8684 4.65665 12.5944 4.77013 12.3087 4.77013Z" fill="white"/>
</svg>
