<svg width="16" height="16" viewBox="0 0 16 16" fill="none" xmlns="http://www.w3.org/2000/svg">
<path d="M6.7727 1.25C5.68041 1.25 4.61265 1.5739 3.70445 2.18074C2.79625 2.78758 2.08839 3.65011 1.67039 4.65925C1.25239 5.66839 1.14303 6.77882 1.35612 7.85012C1.56921 8.92142 2.0952 9.90547 2.86756 10.6778C3.63993 11.4502 4.62398 11.9762 5.69527 12.1893C6.76657 12.4024 7.877 12.293 8.88614 11.875C9.89528 11.457 10.7578 10.7491 11.3646 9.84094C11.9715 8.93274 12.2954 7.86498 12.2954 6.7727C12.2953 5.30801 11.7134 3.90335 10.6777 2.86766C9.64204 1.83198 8.23738 1.25009 6.7727 1.25Z" stroke="#999999" stroke-width="2" stroke-miterlimit="10"/>
<path d="M10.893 10.893L14.75 14.75" stroke="#999999" stroke-width="2" stroke-miterlimit="10" stroke-linecap="round"/>
</svg>
