<svg width="29" height="21" viewBox="0 0 29 21" fill="none" xmlns="http://www.w3.org/2000/svg">
<path d="M10 4L3 4" stroke="#5918DF" stroke-width="2" stroke-linecap="round"/>
<path d="M10 7.5L1 7.5" stroke="#5918DF" stroke-width="2" stroke-linecap="round"/>
<path d="M22.7051 5.35601C22.5272 7.755 20.7086 9.71202 18.7121 9.71202C16.7156 9.71202 14.8938 7.75545 14.7191 5.35601C14.5376 2.86038 16.3072 1 18.7121 1C21.117 1 22.8866 2.90576 22.7051 5.35601Z" stroke="#5918DF" stroke-width="2" stroke-linecap="round" stroke-linejoin="round"/>
<path d="M18.7121 12.616C14.7645 12.616 10.7579 14.794 10.0164 18.905C9.92706 19.4005 10.2075 19.876 10.7261 19.876H26.6982C27.2173 19.876 27.4977 19.4005 27.4083 18.905C26.6664 14.794 22.6598 12.616 18.7121 12.616Z" stroke="#5918DF" stroke-width="2" stroke-miterlimit="10"/>
</svg>
